<svg width="132" height="43" viewBox="0 0 132 43" fill="none" xmlns="http://www.w3.org/2000/svg">
<path d="M26.6981 42.4601H17.7881L17.693 42.2378L0 0H12.588L22.3541 24.8028L32.2469 0H44.7716L26.6981 42.4601ZM18.2638 41.7615H26.2224L43.6618 0.698671H32.6908L22.3224 26.74L12.0807 0.698671H1.04636L18.2638 41.7615Z" fill="#BE1622"/>
<path d="M53.1107 20.1979H47.3716V0H53.1107V20.1979ZM48.0692 19.4993H52.4132V0.698671H48.0692V19.4993Z" fill="#BE1622"/>
<path d="M62.2426 20.1979H56.5035V0H64.9061C66.3012 0 68.3622 0.190547 70.0745 1.84195C71.755 3.4616 71.9769 5.27179 71.9769 6.82792C71.9769 8.47932 71.755 10.353 70.1379 11.9409C68.5208 13.5288 66.5549 13.7511 65.0329 13.7511H62.2109V20.1979H62.2426ZM61.545 19.4993V13.0524H65.0646C66.5232 13.0524 68.2354 12.8619 69.6623 11.4646C71.0891 10.0672 71.2794 8.35229 71.2794 6.85968C71.2794 5.46233 71.0891 3.81093 69.5671 2.38183C68.3622 1.23855 66.9354 0.730428 64.8744 0.730428H57.1693V19.4993H61.545ZM63.5743 9.65436H61.5133V4.09675H63.5743C64.6841 4.09675 65.4768 4.35081 65.9841 4.92245C66.5866 5.52585 66.65 6.31979 66.65 6.92319C66.65 7.33604 66.65 8.32053 65.889 8.98744C65.4451 9.4003 64.6524 9.65436 63.5743 9.65436ZM62.2426 8.95569H63.5743C64.4305 8.95569 65.0963 8.76514 65.4768 8.44756C65.9524 8.03471 66.0159 7.46307 66.0159 6.92319C66.0159 6.41507 65.9524 5.84343 65.5402 5.43058C65.1597 5.01773 64.5256 4.82718 63.6378 4.82718H62.2743V8.95569H62.2426Z" fill="#BE1622"/>
<path d="M52.001 32.8693L57.2645 26.0096H62.5914L55.9962 33.8855L63.1939 42.6189H57.6133L52.001 35.4417V42.6189H47.7204V26.0096H52.001V32.8693Z" fill="#BE1622"/>
<path d="M69.0915 24.4852H65.128V42.6189H69.0915V24.4852Z" fill="#BE1622"/>
<path d="M74.2282 24.644C75.4648 24.644 76.4478 25.6285 76.4478 26.8671C76.4478 28.1056 75.4648 29.1219 74.2282 29.1219C72.9916 29.1219 71.9769 28.1374 71.9769 26.8671C72.0087 25.6285 72.9916 24.644 74.2282 24.644ZM76.2258 42.6189H72.2623V31.5037H76.2258V42.6189Z" fill="#BE1622"/>
<path d="M79.3649 31.5037H83.3284V32.901C84.4064 31.4719 85.8967 31.2496 86.8479 31.2496C87.9894 31.2496 89.1943 31.5355 90.1139 32.4564C91.0651 33.4092 91.1602 34.3619 91.1602 35.5687V42.6189H87.1967V36.9978C87.1967 36.3626 87.2284 35.3781 86.6894 34.8383C86.3089 34.4254 85.8333 34.3619 85.4211 34.3619C84.7869 34.3619 84.2796 34.5842 83.9625 34.87C83.5503 35.2511 83.3284 35.9498 83.3284 36.6485V42.6189H79.3649V31.5037Z" fill="#BE1622"/>
<path d="M98.2628 24.4852V35.5052L102.036 31.5037H107.426L102.163 36.6167L107.839 42.6189H102.321L98.2628 38.0776V42.6189H94.2993V24.4852H98.2628Z" fill="#BE1622"/>
<path d="M120.934 37.7917H112.658C112.658 38.3951 112.88 39.1891 113.356 39.6654C113.609 39.9195 114.117 40.2053 115.005 40.2053C115.1 40.2053 115.797 40.1736 116.305 39.9195C116.558 39.7607 116.812 39.5066 117.002 39.1573H120.807C120.649 39.7925 120.3 40.6499 119.475 41.4439C118.651 42.2378 117.351 43 114.941 43C113.483 43 111.707 42.6824 110.344 41.3168C109.614 40.5864 108.695 39.2208 108.695 37.1248C108.695 35.2511 109.392 33.7585 110.344 32.8058C111.263 31.9165 112.69 31.1861 114.878 31.1861C116.178 31.1861 117.827 31.4719 119.158 32.7105C120.712 34.2031 120.934 36.1403 120.934 37.3789V37.7917ZM117.288 35.5052C117.192 35.0923 116.939 34.616 116.653 34.2984C116.146 33.7903 115.417 33.695 115.005 33.695C114.339 33.695 113.8 33.8538 113.387 34.2984C113.102 34.5842 112.88 34.997 112.785 35.5052H117.288Z" fill="#BE1622"/>
<path d="M123.629 31.5037H127.593V33.3139C128.005 32.5835 128.576 32.0753 129.146 31.7578C129.749 31.4402 130.478 31.3131 131.207 31.3131C131.302 31.3131 131.493 31.3449 132 31.3767V35.1241C131.81 35.0288 131.271 34.7112 130.288 34.7112C129.78 34.7112 129.051 34.7747 128.48 35.3146C127.624 36.0768 127.593 37.2518 127.593 37.8552V42.6189H123.629V31.5037Z" fill="#BE1622"/>
</svg>
